<?xml version="1.0" encoding="UTF-8" standalone="no"?>
<!DOCTYPE svg PUBLIC "-//W3C//DTD SVG 1.1//EN"
 "http://www.w3.org/Graphics/SVG/1.1/DTD/svg11.dtd">
<!-- Generated by graphviz version 5.0.0 (20220707.1540)
 -->
<!-- Title: dependencies Pages: 1 -->
<svg width="1016pt" height="174pt"
 viewBox="0.00 0.00 1016.00 173.80" xmlns="http://www.w3.org/2000/svg" xmlns:xlink="http://www.w3.org/1999/xlink">
<g id="graph0" class="graph" transform="scale(1 1) rotate(0) translate(4 169.8)">
<title>dependencies</title>
<polygon fill="white" stroke="transparent" points="-4,4 -4,-169.8 1012,-169.8 1012,4 -4,4"/>
<text text-anchor="middle" x="504" y="-8.2" font-family="sans-serif" font-size="14.00">dependencies</text>
<g id="clust1" class="cluster">
<title>cluster_AdminModule</title>
<polygon fill="none" stroke="black" stroke-dasharray="1,5" points="8,-32.8 8,-157.8 1000,-157.8 1000,-32.8 8,-32.8"/>
</g>
<g id="clust7" class="cluster">
<title>cluster_AdminModule_imports</title>
<polygon fill="none" stroke="black" points="672,-40.8 672,-92.8 992,-92.8 992,-40.8 672,-40.8"/>
</g>
<g id="clust2" class="cluster">
<title>cluster_AdminModule_declarations</title>
<polygon fill="none" stroke="black" points="16,-40.8 16,-92.8 664,-92.8 664,-40.8 16,-40.8"/>
</g>
<!-- AdminHeaderComponent -->
<g id="node1" class="node">
<title>AdminHeaderComponent</title>
<polygon fill="#ffffb3" stroke="black" points="656.14,-84.8 495.86,-84.8 495.86,-48.8 656.14,-48.8 656.14,-84.8"/>
<text text-anchor="middle" x="576" y="-62.6" font-family="Times,serif" font-size="14.00">AdminHeaderComponent</text>
</g>
<!-- AdminModule -->
<g id="node5" class="node">
<title>AdminModule</title>
<polygon fill="#8dd3c7" stroke="black" points="536.44,-149.8 533.44,-153.8 512.44,-153.8 509.44,-149.8 437.56,-149.8 437.56,-113.8 536.44,-113.8 536.44,-149.8"/>
<text text-anchor="middle" x="487" y="-127.6" font-family="Times,serif" font-size="14.00">AdminModule</text>
</g>
<!-- AdminHeaderComponent&#45;&gt;AdminModule -->
<g id="edge1" class="edge">
<title>AdminHeaderComponent&#45;&gt;AdminModule</title>
<path fill="none" stroke="black" d="M515.95,-84.91C515.95,-84.91 515.95,-103.79 515.95,-103.79"/>
<polygon fill="black" stroke="black" points="512.45,-103.79 515.95,-113.79 519.45,-103.79 512.45,-103.79"/>
</g>
<!-- AdminLayoutComponent -->
<g id="node2" class="node">
<title>AdminLayoutComponent</title>
<polygon fill="#ffffb3" stroke="black" points="477.88,-84.8 318.12,-84.8 318.12,-48.8 477.88,-48.8 477.88,-84.8"/>
<text text-anchor="middle" x="398" y="-62.6" font-family="Times,serif" font-size="14.00">AdminLayoutComponent</text>
</g>
<!-- AdminLayoutComponent&#45;&gt;AdminModule -->
<g id="edge2" class="edge">
<title>AdminLayoutComponent&#45;&gt;AdminModule</title>
<path fill="none" stroke="black" d="M457.86,-84.91C457.86,-84.91 457.86,-103.79 457.86,-103.79"/>
<polygon fill="black" stroke="black" points="454.36,-103.79 457.86,-113.79 461.36,-103.79 454.36,-103.79"/>
</g>
<!-- DashboardComponent -->
<g id="node3" class="node">
<title>DashboardComponent</title>
<polygon fill="#ffffb3" stroke="black" points="299.98,-84.8 158.02,-84.8 158.02,-48.8 299.98,-48.8 299.98,-84.8"/>
<text text-anchor="middle" x="229" y="-62.6" font-family="Times,serif" font-size="14.00">DashboardComponent</text>
</g>
<!-- DashboardComponent&#45;&gt;AdminModule -->
<g id="edge3" class="edge">
<title>DashboardComponent&#45;&gt;AdminModule</title>
<path fill="none" stroke="black" d="M229,-84.82C229,-102.17 229,-125.8 229,-125.8 229,-125.8 427.56,-125.8 427.56,-125.8"/>
<polygon fill="black" stroke="black" points="427.56,-129.3 437.56,-125.8 427.56,-122.3 427.56,-129.3"/>
</g>
<!-- HomeComponent -->
<g id="node4" class="node">
<title>HomeComponent</title>
<polygon fill="#ffffb3" stroke="black" points="139.55,-84.8 24.45,-84.8 24.45,-48.8 139.55,-48.8 139.55,-84.8"/>
<text text-anchor="middle" x="82" y="-62.6" font-family="Times,serif" font-size="14.00">HomeComponent</text>
</g>
<!-- HomeComponent&#45;&gt;AdminModule -->
<g id="edge4" class="edge">
<title>HomeComponent&#45;&gt;AdminModule</title>
<path fill="none" stroke="black" d="M82,-85.08C82,-106.12 82,-137.8 82,-137.8 82,-137.8 427.74,-137.8 427.74,-137.8"/>
<polygon fill="black" stroke="black" points="427.74,-141.3 437.74,-137.8 427.74,-134.3 427.74,-141.3"/>
</g>
<!-- AdminRoutingModule -->
<g id="node6" class="node">
<title>AdminRoutingModule</title>
<polygon fill="#8dd3c7" stroke="black" points="983.56,-84.8 980.56,-88.8 959.56,-88.8 956.56,-84.8 840.44,-84.8 840.44,-48.8 983.56,-48.8 983.56,-84.8"/>
<text text-anchor="middle" x="912" y="-62.6" font-family="Times,serif" font-size="14.00">AdminRoutingModule</text>
</g>
<!-- AdminRoutingModule&#45;&gt;AdminModule -->
<g id="edge5" class="edge">
<title>AdminRoutingModule&#45;&gt;AdminModule</title>
<path fill="none" stroke="black" d="M912,-85.08C912,-106.12 912,-137.8 912,-137.8 912,-137.8 546.58,-137.8 546.58,-137.8"/>
<polygon fill="black" stroke="black" points="546.58,-134.3 536.58,-137.8 546.58,-141.3 546.58,-134.3"/>
</g>
<!-- SharedModuleModule -->
<g id="node7" class="node">
<title>SharedModuleModule</title>
<polygon fill="#8dd3c7" stroke="black" points="821.98,-84.8 818.98,-88.8 797.98,-88.8 794.98,-84.8 680.02,-84.8 680.02,-48.8 821.98,-48.8 821.98,-84.8"/>
<text text-anchor="middle" x="751" y="-62.6" font-family="Times,serif" font-size="14.00">SharedModuleModule</text>
</g>
<!-- SharedModuleModule&#45;&gt;AdminModule -->
<g id="edge6" class="edge">
<title>SharedModuleModule&#45;&gt;AdminModule</title>
<path fill="none" stroke="black" d="M751,-84.82C751,-102.17 751,-125.8 751,-125.8 751,-125.8 546.35,-125.8 546.35,-125.8"/>
<polygon fill="black" stroke="black" points="546.35,-122.3 536.35,-125.8 546.35,-129.3 546.35,-122.3"/>
</g>
</g>
</svg>
