<?xml version="1.0" encoding="UTF-8" standalone="no"?>
<!DOCTYPE svg PUBLIC "-//W3C//DTD SVG 1.1//EN"
 "http://www.w3.org/Graphics/SVG/1.1/DTD/svg11.dtd">
<!-- Generated by graphviz version 5.0.0 (20220707.1540)
 -->
<!-- Title: dependencies Pages: 1 -->
<svg width="1006pt" height="174pt"
 viewBox="0.00 0.00 1006.00 173.80" xmlns="http://www.w3.org/2000/svg" xmlns:xlink="http://www.w3.org/1999/xlink">
<g id="graph0" class="graph" transform="scale(1 1) rotate(0) translate(4 169.8)">
<title>dependencies</title>
<polygon fill="white" stroke="transparent" points="-4,4 -4,-169.8 1002,-169.8 1002,4 -4,4"/>
<text text-anchor="middle" x="499" y="-8.2" font-family="sans-serif" font-size="14.00">dependencies</text>
<g id="clust1" class="cluster">
<title>cluster_PublicModule</title>
<polygon fill="none" stroke="black" stroke-dasharray="1,5" points="8,-32.8 8,-157.8 990,-157.8 990,-32.8 8,-32.8"/>
</g>
<g id="clust2" class="cluster">
<title>cluster_PublicModule_declarations</title>
<polygon fill="none" stroke="black" points="340,-40.8 340,-92.8 982,-92.8 982,-40.8 340,-40.8"/>
</g>
<g id="clust7" class="cluster">
<title>cluster_PublicModule_imports</title>
<polygon fill="none" stroke="black" points="16,-40.8 16,-92.8 332,-92.8 332,-40.8 16,-40.8"/>
</g>
<!-- CreatePostComponent -->
<g id="node1" class="node">
<title>CreatePostComponent</title>
<polygon fill="#ffffb3" stroke="black" points="973.99,-84.8 832.01,-84.8 832.01,-48.8 973.99,-48.8 973.99,-84.8"/>
<text text-anchor="middle" x="903" y="-62.6" font-family="Times,serif" font-size="14.00">CreatePostComponent</text>
</g>
<!-- PublicModule -->
<g id="node5" class="node">
<title>PublicModule</title>
<polygon fill="#8dd3c7" stroke="black" points="560.83,-149.8 557.83,-153.8 536.83,-153.8 533.83,-149.8 465.17,-149.8 465.17,-113.8 560.83,-113.8 560.83,-149.8"/>
<text text-anchor="middle" x="513" y="-127.6" font-family="Times,serif" font-size="14.00">PublicModule</text>
</g>
<!-- CreatePostComponent&#45;&gt;PublicModule -->
<g id="edge1" class="edge">
<title>CreatePostComponent&#45;&gt;PublicModule</title>
<path fill="none" stroke="black" d="M903,-85.08C903,-106.12 903,-137.8 903,-137.8 903,-137.8 570.82,-137.8 570.82,-137.8"/>
<polygon fill="black" stroke="black" points="570.82,-134.3 560.82,-137.8 570.82,-141.3 570.82,-134.3"/>
</g>
<!-- HomeComponent -->
<g id="node2" class="node">
<title>HomeComponent</title>
<polygon fill="#ffffb3" stroke="black" points="813.55,-84.8 698.45,-84.8 698.45,-48.8 813.55,-48.8 813.55,-84.8"/>
<text text-anchor="middle" x="756" y="-62.6" font-family="Times,serif" font-size="14.00">HomeComponent</text>
</g>
<!-- HomeComponent&#45;&gt;PublicModule -->
<g id="edge2" class="edge">
<title>HomeComponent&#45;&gt;PublicModule</title>
<path fill="none" stroke="black" d="M756,-84.82C756,-102.17 756,-125.8 756,-125.8 756,-125.8 570.72,-125.8 570.72,-125.8"/>
<polygon fill="black" stroke="black" points="570.72,-122.3 560.72,-125.8 570.72,-129.3 570.72,-122.3"/>
</g>
<!-- PublicHeaderComponent -->
<g id="node3" class="node">
<title>PublicHeaderComponent</title>
<polygon fill="#ffffb3" stroke="black" points="679.53,-84.8 522.47,-84.8 522.47,-48.8 679.53,-48.8 679.53,-84.8"/>
<text text-anchor="middle" x="601" y="-62.6" font-family="Times,serif" font-size="14.00">PublicHeaderComponent</text>
</g>
<!-- PublicHeaderComponent&#45;&gt;PublicModule -->
<g id="edge3" class="edge">
<title>PublicHeaderComponent&#45;&gt;PublicModule</title>
<path fill="none" stroke="black" d="M541.45,-84.91C541.45,-84.91 541.45,-103.79 541.45,-103.79"/>
<polygon fill="black" stroke="black" points="537.95,-103.79 541.45,-113.79 544.95,-103.79 537.95,-103.79"/>
</g>
<!-- PublicLayoutComponent -->
<g id="node4" class="node">
<title>PublicLayoutComponent</title>
<polygon fill="#ffffb3" stroke="black" points="504.27,-84.8 347.73,-84.8 347.73,-48.8 504.27,-48.8 504.27,-84.8"/>
<text text-anchor="middle" x="426" y="-62.6" font-family="Times,serif" font-size="14.00">PublicLayoutComponent</text>
</g>
<!-- PublicLayoutComponent&#45;&gt;PublicModule -->
<g id="edge4" class="edge">
<title>PublicLayoutComponent&#45;&gt;PublicModule</title>
<path fill="none" stroke="black" d="M484.86,-84.91C484.86,-84.91 484.86,-103.79 484.86,-103.79"/>
<polygon fill="black" stroke="black" points="481.36,-103.79 484.86,-113.79 488.36,-103.79 481.36,-103.79"/>
</g>
<!-- PublicRoutingModule -->
<g id="node6" class="node">
<title>PublicRoutingModule</title>
<polygon fill="#8dd3c7" stroke="black" points="324.45,-84.8 321.45,-88.8 300.45,-88.8 297.45,-84.8 183.55,-84.8 183.55,-48.8 324.45,-48.8 324.45,-84.8"/>
<text text-anchor="middle" x="254" y="-62.6" font-family="Times,serif" font-size="14.00">PublicRoutingModule</text>
</g>
<!-- PublicRoutingModule&#45;&gt;PublicModule -->
<g id="edge5" class="edge">
<title>PublicRoutingModule&#45;&gt;PublicModule</title>
<path fill="none" stroke="black" d="M254,-84.82C254,-102.17 254,-125.8 254,-125.8 254,-125.8 455.19,-125.8 455.19,-125.8"/>
<polygon fill="black" stroke="black" points="455.19,-129.3 465.19,-125.8 455.19,-122.3 455.19,-129.3"/>
</g>
<!-- SharedModuleModule -->
<g id="node7" class="node">
<title>SharedModuleModule</title>
<polygon fill="#8dd3c7" stroke="black" points="165.98,-84.8 162.98,-88.8 141.98,-88.8 138.98,-84.8 24.02,-84.8 24.02,-48.8 165.98,-48.8 165.98,-84.8"/>
<text text-anchor="middle" x="95" y="-62.6" font-family="Times,serif" font-size="14.00">SharedModuleModule</text>
</g>
<!-- SharedModuleModule&#45;&gt;PublicModule -->
<g id="edge6" class="edge">
<title>SharedModuleModule&#45;&gt;PublicModule</title>
<path fill="none" stroke="black" d="M95,-85.08C95,-106.12 95,-137.8 95,-137.8 95,-137.8 455.05,-137.8 455.05,-137.8"/>
<polygon fill="black" stroke="black" points="455.05,-141.3 465.05,-137.8 455.05,-134.3 455.05,-141.3"/>
</g>
</g>
</svg>
