<?xml version="1.0" encoding="UTF-8" standalone="no"?>
<!DOCTYPE svg PUBLIC "-//W3C//DTD SVG 1.1//EN"
 "http://www.w3.org/Graphics/SVG/1.1/DTD/svg11.dtd">
<!-- Generated by graphviz version 5.0.0 (20220707.1540)
 -->
<!-- Title: dependencies Pages: 1 -->
<svg width="608pt" height="174pt"
 viewBox="0.00 0.00 608.00 173.80" xmlns="http://www.w3.org/2000/svg" xmlns:xlink="http://www.w3.org/1999/xlink">
<g id="graph0" class="graph" transform="scale(1 1) rotate(0) translate(4 169.8)">
<title>dependencies</title>
<polygon fill="white" stroke="transparent" points="-4,4 -4,-169.8 604,-169.8 604,4 -4,4"/>
<text text-anchor="middle" x="300" y="-8.2" font-family="sans-serif" font-size="14.00">dependencies</text>
<g id="clust1" class="cluster">
<title>cluster_PostModule</title>
<polygon fill="none" stroke="black" stroke-dasharray="1,5" points="8,-32.8 8,-157.8 592,-157.8 592,-32.8 8,-32.8"/>
</g>
<g id="clust5" class="cluster">
<title>cluster_PostModule_imports</title>
<polygon fill="none" stroke="black" points="280,-40.8 280,-92.8 584,-92.8 584,-40.8 280,-40.8"/>
</g>
<g id="clust2" class="cluster">
<title>cluster_PostModule_declarations</title>
<polygon fill="none" stroke="black" points="16,-40.8 16,-92.8 272,-92.8 272,-40.8 16,-40.8"/>
</g>
<!-- DeleteComponent -->
<g id="node1" class="node">
<title>DeleteComponent</title>
<polygon fill="#ffffb3" stroke="black" points="263.86,-84.8 146.14,-84.8 146.14,-48.8 263.86,-48.8 263.86,-84.8"/>
<text text-anchor="middle" x="205" y="-62.6" font-family="Times,serif" font-size="14.00">DeleteComponent</text>
</g>
<!-- PostModule -->
<g id="node3" class="node">
<title>PostModule</title>
<polygon fill="#8dd3c7" stroke="black" points="323.68,-149.8 320.68,-153.8 299.68,-153.8 296.68,-149.8 240.32,-149.8 240.32,-113.8 323.68,-113.8 323.68,-149.8"/>
<text text-anchor="middle" x="282" y="-127.6" font-family="Times,serif" font-size="14.00">PostModule</text>
</g>
<!-- DeleteComponent&#45;&gt;PostModule -->
<g id="edge1" class="edge">
<title>DeleteComponent&#45;&gt;PostModule</title>
<path fill="none" stroke="black" d="M252.05,-84.91C252.05,-84.91 252.05,-103.79 252.05,-103.79"/>
<polygon fill="black" stroke="black" points="248.55,-103.79 252.05,-113.79 255.55,-103.79 248.55,-103.79"/>
</g>
<!-- EditComponent -->
<g id="node2" class="node">
<title>EditComponent</title>
<polygon fill="#ffffb3" stroke="black" points="128.16,-84.8 23.84,-84.8 23.84,-48.8 128.16,-48.8 128.16,-84.8"/>
<text text-anchor="middle" x="76" y="-62.6" font-family="Times,serif" font-size="14.00">EditComponent</text>
</g>
<!-- EditComponent&#45;&gt;PostModule -->
<g id="edge2" class="edge">
<title>EditComponent&#45;&gt;PostModule</title>
<path fill="none" stroke="black" d="M76,-84.91C76,-104.14 76,-131.8 76,-131.8 76,-131.8 230.31,-131.8 230.31,-131.8"/>
<polygon fill="black" stroke="black" points="230.31,-135.3 240.31,-131.8 230.31,-128.3 230.31,-135.3"/>
</g>
<!-- PostRoutingModule -->
<g id="node4" class="node">
<title>PostRoutingModule</title>
<polygon fill="#8dd3c7" stroke="black" points="576.29,-84.8 573.29,-88.8 552.29,-88.8 549.29,-84.8 447.71,-84.8 447.71,-48.8 576.29,-48.8 576.29,-84.8"/>
<text text-anchor="middle" x="512" y="-62.6" font-family="Times,serif" font-size="14.00">PostRoutingModule</text>
</g>
<!-- PostRoutingModule&#45;&gt;PostModule -->
<g id="edge3" class="edge">
<title>PostRoutingModule&#45;&gt;PostModule</title>
<path fill="none" stroke="black" d="M512,-84.91C512,-104.14 512,-131.8 512,-131.8 512,-131.8 333.92,-131.8 333.92,-131.8"/>
<polygon fill="black" stroke="black" points="333.92,-128.3 323.92,-131.8 333.92,-135.3 333.92,-128.3"/>
</g>
<!-- SharedModuleModule -->
<g id="node5" class="node">
<title>SharedModuleModule</title>
<polygon fill="#8dd3c7" stroke="black" points="429.98,-84.8 426.98,-88.8 405.98,-88.8 402.98,-84.8 288.02,-84.8 288.02,-48.8 429.98,-48.8 429.98,-84.8"/>
<text text-anchor="middle" x="359" y="-62.6" font-family="Times,serif" font-size="14.00">SharedModuleModule</text>
</g>
<!-- SharedModuleModule&#45;&gt;PostModule -->
<g id="edge4" class="edge">
<title>SharedModuleModule&#45;&gt;PostModule</title>
<path fill="none" stroke="black" d="M305.92,-84.91C305.92,-84.91 305.92,-103.79 305.92,-103.79"/>
<polygon fill="black" stroke="black" points="302.42,-103.79 305.92,-113.79 309.42,-103.79 302.42,-103.79"/>
</g>
</g>
</svg>
