<?xml version="1.0" encoding="UTF-8" standalone="no"?>
<!DOCTYPE svg PUBLIC "-//W3C//DTD SVG 1.1//EN"
 "http://www.w3.org/Graphics/SVG/1.1/DTD/svg11.dtd">
<!-- Generated by graphviz version 5.0.0 (20220707.1540)
 -->
<!-- Title: dependencies Pages: 1 -->
<svg width="608pt" height="174pt"
 viewBox="0.00 0.00 608.00 173.80" xmlns="http://www.w3.org/2000/svg" xmlns:xlink="http://www.w3.org/1999/xlink">
<g id="graph0" class="graph" transform="scale(1 1) rotate(0) translate(4 169.8)">
<title>dependencies</title>
<polygon fill="white" stroke="transparent" points="-4,4 -4,-169.8 604,-169.8 604,4 -4,4"/>
<text text-anchor="middle" x="300" y="-8.2" font-family="sans-serif" font-size="14.00">dependencies</text>
<g id="clust1" class="cluster">
<title>cluster_PostModule</title>
<polygon fill="none" stroke="black" stroke-dasharray="1,5" points="8,-32.8 8,-157.8 592,-157.8 592,-32.8 8,-32.8"/>
</g>
<g id="clust2" class="cluster">
<title>cluster_PostModule_declarations</title>
<polygon fill="none" stroke="black" points="328,-40.8 328,-92.8 584,-92.8 584,-40.8 328,-40.8"/>
</g>
<g id="clust5" class="cluster">
<title>cluster_PostModule_imports</title>
<polygon fill="none" stroke="black" points="16,-40.8 16,-92.8 320,-92.8 320,-40.8 16,-40.8"/>
</g>
<!-- DeleteComponent -->
<g id="node1" class="node">
<title>DeleteComponent</title>
<polygon fill="#ffffb3" stroke="black" points="575.86,-84.8 458.14,-84.8 458.14,-48.8 575.86,-48.8 575.86,-84.8"/>
<text text-anchor="middle" x="517" y="-62.6" font-family="Times,serif" font-size="14.00">DeleteComponent</text>
</g>
<!-- PostModule -->
<g id="node3" class="node">
<title>PostModule</title>
<polygon fill="#8dd3c7" stroke="black" points="359.68,-149.8 356.68,-153.8 335.68,-153.8 332.68,-149.8 276.32,-149.8 276.32,-113.8 359.68,-113.8 359.68,-149.8"/>
<text text-anchor="middle" x="318" y="-127.6" font-family="Times,serif" font-size="14.00">PostModule</text>
</g>
<!-- DeleteComponent&#45;&gt;PostModule -->
<g id="edge1" class="edge">
<title>DeleteComponent&#45;&gt;PostModule</title>
<path fill="none" stroke="black" d="M517,-84.91C517,-104.14 517,-131.8 517,-131.8 517,-131.8 369.72,-131.8 369.72,-131.8"/>
<polygon fill="black" stroke="black" points="369.72,-128.3 359.72,-131.8 369.72,-135.3 369.72,-128.3"/>
</g>
<!-- EditComponent -->
<g id="node2" class="node">
<title>EditComponent</title>
<polygon fill="#ffffb3" stroke="black" points="440.16,-84.8 335.84,-84.8 335.84,-48.8 440.16,-48.8 440.16,-84.8"/>
<text text-anchor="middle" x="388" y="-62.6" font-family="Times,serif" font-size="14.00">EditComponent</text>
</g>
<!-- EditComponent&#45;&gt;PostModule -->
<g id="edge2" class="edge">
<title>EditComponent&#45;&gt;PostModule</title>
<path fill="none" stroke="black" d="M347.75,-84.91C347.75,-84.91 347.75,-103.79 347.75,-103.79"/>
<polygon fill="black" stroke="black" points="344.25,-103.79 347.75,-113.79 351.25,-103.79 344.25,-103.79"/>
</g>
<!-- PostRoutingModule -->
<g id="node4" class="node">
<title>PostRoutingModule</title>
<polygon fill="#8dd3c7" stroke="black" points="312.29,-84.8 309.29,-88.8 288.29,-88.8 285.29,-84.8 183.71,-84.8 183.71,-48.8 312.29,-48.8 312.29,-84.8"/>
<text text-anchor="middle" x="248" y="-62.6" font-family="Times,serif" font-size="14.00">PostRoutingModule</text>
</g>
<!-- PostRoutingModule&#45;&gt;PostModule -->
<g id="edge3" class="edge">
<title>PostRoutingModule&#45;&gt;PostModule</title>
<path fill="none" stroke="black" d="M294.28,-84.91C294.28,-84.91 294.28,-103.79 294.28,-103.79"/>
<polygon fill="black" stroke="black" points="290.78,-103.79 294.28,-113.79 297.78,-103.79 290.78,-103.79"/>
</g>
<!-- SharedModuleModule -->
<g id="node5" class="node">
<title>SharedModuleModule</title>
<polygon fill="#8dd3c7" stroke="black" points="165.98,-84.8 162.98,-88.8 141.98,-88.8 138.98,-84.8 24.02,-84.8 24.02,-48.8 165.98,-48.8 165.98,-84.8"/>
<text text-anchor="middle" x="95" y="-62.6" font-family="Times,serif" font-size="14.00">SharedModuleModule</text>
</g>
<!-- SharedModuleModule&#45;&gt;PostModule -->
<g id="edge4" class="edge">
<title>SharedModuleModule&#45;&gt;PostModule</title>
<path fill="none" stroke="black" d="M95,-84.91C95,-104.14 95,-131.8 95,-131.8 95,-131.8 266.32,-131.8 266.32,-131.8"/>
<polygon fill="black" stroke="black" points="266.32,-135.3 276.32,-131.8 266.32,-128.3 266.32,-135.3"/>
</g>
</g>
</svg>
