<?xml version="1.0" encoding="UTF-8" standalone="no"?>
<!DOCTYPE svg PUBLIC "-//W3C//DTD SVG 1.1//EN"
 "http://www.w3.org/Graphics/SVG/1.1/DTD/svg11.dtd">
<!-- Generated by graphviz version 5.0.0 (20220707.1540)
 -->
<!-- Title: dependencies Pages: 1 -->
<svg width="965pt" height="174pt"
 viewBox="0.00 0.00 965.00 173.80" xmlns="http://www.w3.org/2000/svg" xmlns:xlink="http://www.w3.org/1999/xlink">
<g id="graph0" class="graph" transform="scale(1 1) rotate(0) translate(4 169.8)">
<title>dependencies</title>
<polygon fill="white" stroke="transparent" points="-4,4 -4,-169.8 961,-169.8 961,4 -4,4"/>
<text text-anchor="middle" x="478.5" y="-8.2" font-family="sans-serif" font-size="14.00">dependencies</text>
<g id="clust1" class="cluster">
<title>cluster_AuthModule</title>
<polygon fill="none" stroke="black" stroke-dasharray="1,5" points="8,-32.8 8,-157.8 949,-157.8 949,-32.8 8,-32.8"/>
</g>
<g id="clust9" class="cluster">
<title>cluster_AuthModule_providers</title>
<polygon fill="none" stroke="black" points="749,-40.8 749,-92.8 941,-92.8 941,-40.8 749,-40.8"/>
</g>
<g id="clust6" class="cluster">
<title>cluster_AuthModule_imports</title>
<polygon fill="none" stroke="black" points="433,-40.8 433,-92.8 741,-92.8 741,-40.8 433,-40.8"/>
</g>
<g id="clust2" class="cluster">
<title>cluster_AuthModule_declarations</title>
<polygon fill="none" stroke="black" points="16,-40.8 16,-92.8 425,-92.8 425,-40.8 16,-40.8"/>
</g>
<!-- LoginComponent -->
<g id="node1" class="node">
<title>LoginComponent</title>
<polygon fill="#ffffb3" stroke="black" points="417.27,-84.8 302.73,-84.8 302.73,-48.8 417.27,-48.8 417.27,-84.8"/>
<text text-anchor="middle" x="360" y="-62.6" font-family="Times,serif" font-size="14.00">LoginComponent</text>
</g>
<!-- AuthModule -->
<g id="node4" class="node">
<title>AuthModule</title>
<polygon fill="#8dd3c7" stroke="black" points="479.55,-149.8 476.55,-153.8 455.55,-153.8 452.55,-149.8 392.45,-149.8 392.45,-113.8 479.55,-113.8 479.55,-149.8"/>
<text text-anchor="middle" x="436" y="-127.6" font-family="Times,serif" font-size="14.00">AuthModule</text>
</g>
<!-- LoginComponent&#45;&gt;AuthModule -->
<g id="edge1" class="edge">
<title>LoginComponent&#45;&gt;AuthModule</title>
<path fill="none" stroke="black" d="M404.81,-84.91C404.81,-84.91 404.81,-103.79 404.81,-103.79"/>
<polygon fill="black" stroke="black" points="401.31,-103.79 404.81,-113.79 408.31,-103.79 401.31,-103.79"/>
</g>
<!-- LogoutComponent -->
<g id="node2" class="node">
<title>LogoutComponent</title>
<polygon fill="#ffffb3" stroke="black" points="284.77,-84.8 163.23,-84.8 163.23,-48.8 284.77,-48.8 284.77,-84.8"/>
<text text-anchor="middle" x="224" y="-62.6" font-family="Times,serif" font-size="14.00">LogoutComponent</text>
</g>
<!-- LogoutComponent&#45;&gt;AuthModule -->
<g id="edge2" class="edge">
<title>LogoutComponent&#45;&gt;AuthModule</title>
<path fill="none" stroke="black" d="M224,-84.82C224,-102.17 224,-125.8 224,-125.8 224,-125.8 382.33,-125.8 382.33,-125.8"/>
<polygon fill="black" stroke="black" points="382.33,-129.3 392.33,-125.8 382.33,-122.3 382.33,-129.3"/>
</g>
<!-- SignupComponent -->
<g id="node3" class="node">
<title>SignupComponent</title>
<polygon fill="#ffffb3" stroke="black" points="145.51,-84.8 24.49,-84.8 24.49,-48.8 145.51,-48.8 145.51,-84.8"/>
<text text-anchor="middle" x="85" y="-62.6" font-family="Times,serif" font-size="14.00">SignupComponent</text>
</g>
<!-- SignupComponent&#45;&gt;AuthModule -->
<g id="edge3" class="edge">
<title>SignupComponent&#45;&gt;AuthModule</title>
<path fill="none" stroke="black" d="M85,-85.08C85,-106.12 85,-137.8 85,-137.8 85,-137.8 382.26,-137.8 382.26,-137.8"/>
<polygon fill="black" stroke="black" points="382.26,-141.3 392.26,-137.8 382.26,-134.3 382.26,-141.3"/>
</g>
<!-- AuthRoutingModule -->
<g id="node5" class="node">
<title>AuthRoutingModule</title>
<polygon fill="#8dd3c7" stroke="black" points="733.17,-84.8 730.17,-88.8 709.17,-88.8 706.17,-84.8 600.83,-84.8 600.83,-48.8 733.17,-48.8 733.17,-84.8"/>
<text text-anchor="middle" x="667" y="-62.6" font-family="Times,serif" font-size="14.00">AuthRoutingModule</text>
</g>
<!-- AuthRoutingModule&#45;&gt;AuthModule -->
<g id="edge4" class="edge">
<title>AuthRoutingModule&#45;&gt;AuthModule</title>
<path fill="none" stroke="black" d="M667,-84.82C667,-102.17 667,-125.8 667,-125.8 667,-125.8 489.72,-125.8 489.72,-125.8"/>
<polygon fill="black" stroke="black" points="489.72,-122.3 479.72,-125.8 489.72,-129.3 489.72,-122.3"/>
</g>
<!-- SharedModuleModule -->
<g id="node6" class="node">
<title>SharedModuleModule</title>
<polygon fill="#8dd3c7" stroke="black" points="582.98,-84.8 579.98,-88.8 558.98,-88.8 555.98,-84.8 441.02,-84.8 441.02,-48.8 582.98,-48.8 582.98,-84.8"/>
<text text-anchor="middle" x="512" y="-62.6" font-family="Times,serif" font-size="14.00">SharedModuleModule</text>
</g>
<!-- SharedModuleModule&#45;&gt;AuthModule -->
<g id="edge5" class="edge">
<title>SharedModuleModule&#45;&gt;AuthModule</title>
<path fill="none" stroke="black" d="M460.39,-84.91C460.39,-84.91 460.39,-103.79 460.39,-103.79"/>
<polygon fill="black" stroke="black" points="456.89,-103.79 460.39,-113.79 463.89,-103.79 456.89,-103.79"/>
</g>
<!-- AuthServiceService -->
<g id="node7" class="node">
<title>AuthServiceService</title>
<ellipse fill="#fdb462" stroke="black" cx="845" cy="-66.8" rx="88.03" ry="18"/>
<text text-anchor="middle" x="845" y="-62.6" font-family="Times,serif" font-size="14.00">AuthServiceService</text>
</g>
<!-- AuthServiceService&#45;&gt;AuthModule -->
<g id="edge6" class="edge">
<title>AuthServiceService&#45;&gt;AuthModule</title>
<path fill="none" stroke="black" d="M845,-85.08C845,-106.12 845,-137.8 845,-137.8 845,-137.8 489.77,-137.8 489.77,-137.8"/>
<polygon fill="black" stroke="black" points="489.77,-134.3 479.77,-137.8 489.77,-141.3 489.77,-134.3"/>
</g>
</g>
</svg>
