<?xml version="1.0" encoding="UTF-8" standalone="no"?>
<!DOCTYPE svg PUBLIC "-//W3C//DTD SVG 1.1//EN"
 "http://www.w3.org/Graphics/SVG/1.1/DTD/svg11.dtd">
<!-- Generated by graphviz version 5.0.0 (20220707.1540)
 -->
<!-- Title: dependencies Pages: 1 -->
<svg width="182pt" height="247pt"
 viewBox="0.00 0.00 182.00 246.80" xmlns="http://www.w3.org/2000/svg" xmlns:xlink="http://www.w3.org/1999/xlink">
<g id="graph0" class="graph" transform="scale(1 1) rotate(0) translate(4 242.8)">
<title>dependencies</title>
<polygon fill="white" stroke="transparent" points="-4,4 -4,-242.8 178,-242.8 178,4 -4,4"/>
<text text-anchor="middle" x="87" y="-8.2" font-family="sans-serif" font-size="14.00">dependencies</text>
<g id="clust1" class="cluster">
<title>cluster_SharedModuleModule</title>
<polygon fill="none" stroke="black" stroke-dasharray="1,5" points="8,-32.8 8,-230.8 166,-230.8 166,-32.8 8,-32.8"/>
</g>
<g id="clust3" class="cluster">
<title>cluster_SharedModuleModule_imports</title>
<polygon fill="none" stroke="black" points="26,-40.8 26,-92.8 148,-92.8 148,-40.8 26,-40.8"/>
</g>
<g id="clust4" class="cluster">
<title>cluster_SharedModuleModule_exports</title>
<polygon fill="none" stroke="black" points="24,-170.8 24,-222.8 150,-222.8 150,-170.8 24,-170.8"/>
</g>
<!-- MaterialModule -->
<g id="node1" class="node">
<title>MaterialModule</title>
<polygon fill="#8dd3c7" stroke="black" points="140.47,-84.8 137.47,-88.8 116.47,-88.8 113.47,-84.8 33.53,-84.8 33.53,-48.8 140.47,-48.8 140.47,-84.8"/>
<text text-anchor="middle" x="87" y="-62.6" font-family="Times,serif" font-size="14.00">MaterialModule</text>
</g>
<!-- SharedModuleModule -->
<g id="node2" class="node">
<title>SharedModuleModule</title>
<polygon fill="#8dd3c7" stroke="black" points="157.98,-149.8 154.98,-153.8 133.98,-153.8 130.98,-149.8 16.02,-149.8 16.02,-113.8 157.98,-113.8 157.98,-149.8"/>
<text text-anchor="middle" x="87" y="-127.6" font-family="Times,serif" font-size="14.00">SharedModuleModule</text>
</g>
<!-- MaterialModule&#45;&gt;SharedModuleModule -->
<g id="edge1" class="edge">
<title>MaterialModule&#45;&gt;SharedModuleModule</title>
<path fill="none" stroke="black" d="M87,-84.91C87,-84.91 87,-103.79 87,-103.79"/>
<polygon fill="black" stroke="black" points="83.5,-103.79 87,-113.79 90.5,-103.79 83.5,-103.79"/>
</g>
<!-- MaterialModule  -->
<g id="node3" class="node">
<title>MaterialModule </title>
<polygon fill="#fb8072" stroke="black" points="142.47,-214.8 31.53,-214.8 31.53,-178.8 142.47,-178.8 142.47,-214.8"/>
<text text-anchor="middle" x="87" y="-192.6" font-family="Times,serif" font-size="14.00">MaterialModule </text>
</g>
<!-- SharedModuleModule&#45;&gt;MaterialModule  -->
<g id="edge2" class="edge">
<title>SharedModuleModule&#45;&gt;MaterialModule </title>
<path fill="none" stroke="black" stroke-dasharray="5,2" d="M87,-149.91C87,-149.91 87,-168.79 87,-168.79"/>
<polygon fill="black" stroke="black" points="83.5,-168.79 87,-178.79 90.5,-168.79 83.5,-168.79"/>
</g>
</g>
</svg>
